<?xml version="1.0" standalone="no"?><!DOCTYPE svg PUBLIC "-//W3C//DTD SVG 1.1//EN" "http://www.w3.org/Graphics/SVG/1.1/DTD/svg11.dtd"><svg t="1629465664452" class="icon" viewBox="0 0 1511 1024" version="1.1" xmlns="http://www.w3.org/2000/svg" p-id="1449" xmlns:xlink="http://www.w3.org/1999/xlink" width="94.4375" height="64"><defs><style type="text/css"></style></defs><path d="M193.80687474 1131.86905889V-107.86905889A87.12144253 87.12144253 0 0 1 327.97389552-181.05107071l974.88893459 624.6607381a87.12144253 87.12144253 0 0 1 0 147.23523755l-975.7601485 614.20616577A87.12144253 87.12144253 0 0 1 193.80687474 1131.86905889z" fill="#ff6f00" p-id="1450"></path><path d="M720.86981758 439.05031188L467.17217952 276.42362139v478.58712026L719.94052275 594.24264082a92.92953869 92.92953869 0 0 0 0.92929483-155.19232894z" fill="#61B23B" p-id="1451"></path><path d="M330.72811125 797.72962789V226.27037211a40.15876748 40.15876748 0 0 1 61.84450144-33.7333647l448.97501648 287.93836009a40.15876748 40.15876748 0 0 1 0 67.86831671L392.1710246 831.46299259a40.15876748 40.15876748 0 0 1-61.44291335-33.7333647z" fill="#ff6f00" p-id="1452"></path></svg>