<?xml version="1.0" standalone="no"?><!DOCTYPE svg PUBLIC "-//W3C//DTD SVG 1.1//EN" "http://www.w3.org/Graphics/SVG/1.1/DTD/svg11.dtd"><svg t="1629459302236" class="icon" viewBox="0 0 1511 1024" version="1.1" xmlns="http://www.w3.org/2000/svg" p-id="1493" xmlns:xlink="http://www.w3.org/1999/xlink" width="94.4375" height="64"><defs><style type="text/css"></style></defs><path d="M445.33333327 932.85027688V91.14972312A59.14972313 59.14972313 0 0 1 536.42390639 41.46395562l661.88539688 424.10351157a59.14972313 59.14972313 0 0 1 0 99.96303187l-662.47689375 417.00554532A59.14972313 59.14972313 0 0 1 445.33333327 932.85027688z" fill="#ff6f00" p-id="1494"></path><path d="M803.174368 462.471965L630.930376 352.05915v324.929143L802.543438 567.837338a63.093038 63.093038 0 0 0 0.63093-105.365373z" fill="#61B23B" p-id="1495"></path><path d="M538.29383754 705.99160401V318.00839599a27.26515894 27.26515894 0 0 1 41.98834444-22.90273352l304.82447428 195.49118774a27.26515894 27.26515894 0 0 1 0 46.07811839L580.00953012 728.89433753a27.26515894 27.26515894 0 0 1-41.71569258-22.90273352z" fill="#ff6f00" p-id="1496"></path></svg>