<?xml version="1.0" standalone="no"?><!DOCTYPE svg PUBLIC "-//W3C//DTD SVG 1.1//EN" "http://www.w3.org/Graphics/SVG/1.1/DTD/svg11.dtd"><svg t="1629770472672" class="icon" viewBox="0 0 1024 1024" version="1.1" xmlns="http://www.w3.org/2000/svg" p-id="1358" xmlns:xlink="http://www.w3.org/1999/xlink" width="64" height="64"><defs><style type="text/css"></style></defs><path d="M577.75445655 307.85744639c-175.12743881 0-317.08523987 141.98725904-317.08523991 317.11469781 0 58.2678005 15.78945453 112.85335881 43.22952338 159.77985331-16.54063195-9.97151186-45.42413972-36.83715091-74.36656336-109.23003246 0 0-98.87556739-184.936932 55.82279169-390.83318655 0 0 83.77837442-133.78322341 305.9354105-143.09193167v-66.29508851S281.87893167 54.3718937 164.40067669 385.876794c0 0-95.39953078 280.35119174 146.56796837 468.76416038 0 0 209.35756223 158.20385365 403.61793144 58.16469771 0 0 20.87094876-7.43812922 48.88544737-30.90137649 79.56588935-57.60499692 131.38240151-151.2075935 131.38240152-256.9321314 0-175.12743881-141.97253006-317.11469782-317.09996888-317.1146978z m-119.09844156 522.80474682c-44.42256983 0-80.43489851-36.01232867-80.43489852-80.43489851 0-44.40784089 36.01232867-80.43489851 80.43489852-80.4348985s80.43489851 36.02705765 80.43489849 80.4348985c0 44.43729881-36.02705765 80.43489851-80.43489849 80.43489851z m12.37233377-238.21161207c-44.42256983 0-80.43489851-36.01232867-80.4348985-80.43489851s36.01232867-80.44962749 80.4348985-80.44962747 80.43489851 36.02705765 80.43489849 80.44962747c0 44.43729881-36.01232867 80.43489851-80.43489849 80.43489851z m120.14419833 78.38757187c-15.3770434 0-27.85247997-12.46070761-27.85247992-27.83775102 0-15.36231443 12.47543657-27.837751 27.85247992-27.83775099 15.36231443 0 27.837751 12.47543657 27.837751 27.83775099 0 15.36231443-12.47543657 27.837751-27.837751 27.83775102z m102.60199652 169.10329053c-44.42256983 0-80.43489851-36.01232867-80.43489848-80.4348985 0-44.40784089 36.01232867-80.43489851 80.43489848-80.43489852s80.43489851 36.01232867 80.4348985 80.43489852-36.01232867 80.43489851-80.4348985 80.4348985z m9.27925033-235.11852863c-44.43729881 0-80.43489851-35.9975997-80.43489851-80.43489849 0-44.40784089 36.01232867-80.43489851 80.43489851-80.4348985 44.40784089 0 80.43489851 36.01232867 80.43489851 80.4348985 0 44.43729881-36.02705765 80.43489851-80.43489851 80.43489849z" fill="#0abbed" p-id="1359"></path></svg>