<?xml version="1.0" standalone="no"?><!DOCTYPE svg PUBLIC "-//W3C//DTD SVG 1.1//EN" "http://www.w3.org/Graphics/SVG/1.1/DTD/svg11.dtd"><svg t="1629771235244" class="icon" viewBox="0 0 1024 1024" version="1.1" xmlns="http://www.w3.org/2000/svg" p-id="5671" xmlns:xlink="http://www.w3.org/1999/xlink" width="64" height="64"><defs><style type="text/css"></style></defs><path d="M52.965517 759.172414c-29.206069 0-52.965517-23.759448-52.965517-52.965517s23.759448-52.965517 52.965517-52.965518 52.965517 23.759448 52.965517 52.965518-23.759448 52.965517-52.965517 52.965517z" fill="#E06C3E" p-id="5672"></path><path d="M335.448276 300.137931h353.103448v35.310345H335.448276zM688.551724 335.448276h35.310345v353.103448h-35.310345zM335.448276 688.551724h353.103448v35.310345H335.448276zM300.137931 335.448276h35.310345v353.103448h-35.310345z" fill="#535353" p-id="5673"></path><path d="M335.448276 335.448276v353.103448h353.103448V335.448276H335.448276z m317.793103 300.137931a17.655172 17.655172 0 0 1-17.655172 17.655172H388.413793a17.655172 17.655172 0 0 1-17.655172-17.655172V388.413793a17.655172 17.655172 0 0 1 17.655172-17.655172h247.172414a17.655172 17.655172 0 0 1 17.655172 17.655172v247.172414z" fill="#4A8F9E" p-id="5674"></path><path d="M635.586207 370.758621H388.413793a17.655172 17.655172 0 0 0-17.655172 17.655172v247.172414a17.655172 17.655172 0 0 0 17.655172 17.655172h247.172414a17.655172 17.655172 0 0 0 17.655172-17.655172V388.413793a17.655172 17.655172 0 0 0-17.655172-17.655172z" fill="#C1DB66" p-id="5675"></path><path d="M921.317517 688.551724H688.551724v232.774621c5.552552-1.981793 11.431724-3.257379 17.655173-3.257379s12.102621 1.28 17.655172 3.257379V723.862069h197.455448c-1.972966-5.552552-3.248552-11.431724-3.248551-17.655172s1.28-12.102621 3.248551-17.655173zM723.862069 335.448276h197.455448c-1.972966-5.552552-3.248552-11.431724-3.248551-17.655173s1.28-12.102621 3.248551-17.655172H723.862069V102.673655c-5.552552 1.981793-11.431724 3.257379-17.655172 3.257379s-12.102621-1.28-17.655173-3.257379V335.448276h35.310345zM335.448276 300.137931V102.673655c-5.552552 1.981793-11.431724 3.257379-17.655173 3.257379s-12.102621-1.28-17.655172-3.257379V300.137931H70.62069v35.310345h264.827586v-35.310345zM300.137931 688.551724H70.62069v35.310345h229.517241v197.464276c5.552552-1.981793 11.431724-3.257379 17.655172-3.257379s12.102621 1.28 17.655173 3.257379V688.551724h-35.310345z" fill="#4A8F9E" p-id="5676"></path><path d="M723.862069 102.673655c20.506483-7.309241 35.310345-26.725517 35.310345-49.708138 0-29.206069-23.759448-52.965517-52.965517-52.965517s-52.965517 23.759448-52.965518 52.965517c0 22.982621 14.803862 42.398897 35.310345 49.708138 5.552552 1.981793 11.431724 3.257379 17.655173 3.257379s12.102621-1.28 17.655172-3.257379zM335.448276 102.673655c20.506483-7.309241 35.310345-26.725517 35.310345-49.708138 0-29.206069-23.759448-52.965517-52.965518-52.965517S264.827586 23.759448 264.827586 52.965517c0 22.982621 14.803862 42.398897 35.310345 49.708138 5.552552 1.981793 11.431724 3.257379 17.655172 3.257379s12.102621-1.28 17.655173-3.257379zM688.551724 921.326345c-20.506483 7.309241-35.310345 26.725517-35.310345 49.708138 0 29.206069 23.759448 52.965517 52.965518 52.965517s52.965517-23.759448 52.965517-52.965517c0-22.982621-14.803862-42.398897-35.310345-49.708138-5.552552-1.981793-11.431724-3.257379-17.655172-3.257379s-12.102621 1.28-17.655173 3.257379zM300.137931 921.326345c-20.506483 7.309241-35.310345 26.725517-35.310345 49.708138 0 29.206069 23.759448 52.965517 52.965517 52.965517s52.965517-23.759448 52.965518-52.965517c0-22.982621-14.803862-42.398897-35.310345-49.708138-5.552552-1.981793-11.431724-3.257379-17.655173-3.257379s-12.102621 1.28-17.655172 3.257379zM971.034483 653.241379c-22.982621 0-42.398897 14.81269-49.716966 35.310345-1.972966 5.552552-3.248552 11.431724-3.248551 17.655173s1.28 12.102621 3.248551 17.655172c7.318069 20.497655 26.734345 35.310345 49.716966 35.310345 29.206069 0 52.965517-23.759448 52.965517-52.965517s-23.759448-52.965517-52.965517-52.965518zM921.317517 335.448276c7.318069 20.497655 26.734345 35.310345 49.716966 35.310345 29.206069 0 52.965517-23.759448 52.965517-52.965518s-23.759448-52.965517-52.965517-52.965517c-22.982621 0-42.398897 14.81269-49.716966 35.310345-1.972966 5.552552-3.248552 11.431724-3.248551 17.655172s1.28 12.102621 3.248551 17.655173z" fill="#E06C3E" p-id="5677"></path><path d="M52.965517 370.758621C23.759448 370.758621 0 346.999172 0 317.793103s23.759448-52.965517 52.965517-52.965517 52.965517 23.759448 52.965517 52.965517-23.759448 52.965517-52.965517 52.965518z" fill="#E06C3E" p-id="5678"></path></svg>