<?xml version="1.0" standalone="no"?><!DOCTYPE svg PUBLIC "-//W3C//DTD SVG 1.1//EN" "http://www.w3.org/Graphics/SVG/1.1/DTD/svg11.dtd"><svg t="1629771245801" class="icon" viewBox="0 0 1024 1024" version="1.1" xmlns="http://www.w3.org/2000/svg" p-id="6126" xmlns:xlink="http://www.w3.org/1999/xlink" width="64" height="64"><defs><style type="text/css"></style></defs><path d="M898.245614 213.957614v308.646175a107.443649 107.443649 0 0 1 17.964912-1.621333c6.139509 0 12.10386 0.628772 17.964913 1.621333V213.962105c-5.861053 0.98807-11.825404 1.621333-17.964913 1.621334s-12.10386-0.628772-17.964912-1.621334zM501.400702 125.754386h308.637193c-0.98807-5.861053-1.616842-11.834386-1.616842-17.964912s0.628772-12.10386 1.616842-17.964913h-308.637193c0.98807 5.861053 1.616842 11.834386 1.616842 17.964913s-0.628772 12.10386-1.616842 17.964912zM810.037895 610.807018H646.736842v-109.410807c-5.861053 0.98807-11.825404 1.621333-17.964912 1.621333s-12.10386-0.628772-17.964912-1.621333V610.807018h-109.406316c0.98807 5.861053 1.616842 11.834386 1.616842 17.964912s-0.628772 12.10386-1.616842 17.964912H610.807018v163.305544a107.443649 107.443649 0 0 1 17.964912-1.621333c6.139509 0 12.10386 0.628772 17.964912 1.621333V646.736842h163.301053c-0.98807-5.861053-1.616842-11.834386-1.616842-17.964912s0.628772-12.10386 1.616842-17.964912z" fill="#F8A131" p-id="6127"></path><path d="M810.037895 125.754386c7.612632 45.033544 43.174175 80.595088 88.207719 88.203228 5.861053 0.98807 11.825404 1.621333 17.964912 1.621333s12.10386-0.628772 17.964913-1.621333c50.894596-8.591719 89.824561-52.861754 89.824561-106.16814 0-59.436912-48.352561-107.789474-107.789474-107.789474-53.297404 0-97.580912 38.929965-106.172631 89.824561-0.98807 5.861053-1.616842 11.834386-1.616842 17.964913s0.628772 12.10386 1.616842 17.964912zM413.192982 213.957614c45.033544-7.60814 80.595088-43.169684 88.20772-88.203228 0.98807-5.861053 1.616842-11.834386 1.616842-17.964912s-0.628772-12.10386-1.616842-17.964913C492.808982 38.929965 448.529965 0 395.22807 0 335.791158 0 287.438596 48.352561 287.438596 107.789474c0 53.310877 38.929965 97.576421 89.824562 106.16814 5.861053 0.98807 11.825404 1.621333 17.964912 1.621333s12.10386-0.628772 17.964912-1.621333zM934.175439 522.603789a107.461614 107.461614 0 0 0-17.964913-1.621333c-6.139509 0-12.10386 0.628772-17.964912 1.621333-45.033544 7.60814-80.595088 43.169684-88.207719 88.203229-0.98807 5.861053-1.616842 11.834386-1.616842 17.964912s0.628772 12.10386 1.616842 17.964912c8.591719 50.894596 52.875228 89.824561 106.172631 89.824562 59.436912 0 107.789474-48.352561 107.789474-107.789474 0-53.310877-38.929965-97.576421-89.824561-106.168141zM413.192982 522.603789a107.461614 107.461614 0 0 0-17.964912-1.621333c-6.139509 0-12.10386 0.628772-17.964912 1.621333-50.894596 8.591719-89.824561 52.861754-89.824562 106.168141 0 59.436912 48.34807 107.789474 107.789474 107.789474 53.297404 0 97.576421-38.929965 106.172632-89.824562 0.98807-5.861053 1.616842-11.834386 1.616842-17.964912s-0.628772-12.10386-1.616842-17.964912c-7.612632-45.033544-43.174175-80.595088-88.20772-88.203229z" fill="#E06C3E" p-id="6128"></path><path d="M125.754386 810.042386V501.400702c-5.861053 0.98807-11.825404 1.621333-17.964912 1.621333s-12.10386-0.628772-17.964913-1.621333v308.646175a107.443649 107.443649 0 0 1 17.964913-1.621333c6.139509 0 12.10386 0.628772 17.964912 1.621333zM522.599298 898.245614H213.962105c0.98807 5.861053 1.616842 11.834386 1.616842 17.964912s-0.628772 12.10386-1.616842 17.964913h308.637193c-0.98807-5.861053-1.616842-11.834386-1.616842-17.964913s0.628772-12.10386 1.616842-17.964912zM213.962105 413.192982H377.263158v109.410807a107.443649 107.443649 0 0 1 17.964912-1.621333c6.139509 0 12.10386 0.628772 17.964912 1.621333V413.192982h109.406316c-0.98807-5.861053-1.616842-11.834386-1.616842-17.964912s0.628772-12.10386 1.616842-17.964912H413.192982V213.957614c-5.861053 0.98807-11.825404 1.621333-17.964912 1.621333s-12.10386-0.628772-17.964912-1.621333V377.263158H213.962105c0.98807 5.861053 1.616842 11.834386 1.616842 17.964912s-0.628772 12.10386-1.616842 17.964912z" fill="#F8A131" p-id="6129"></path><path d="M736.561404 395.22807c0-59.436912-48.352561-107.789474-107.789474-107.789474-53.297404 0-97.580912 38.929965-106.172632 89.824562-0.98807 5.861053-1.616842 11.834386-1.616842 17.964912s0.628772 12.10386 1.616842 17.964912c7.612632 45.033544 43.174175 80.595088 88.20772 88.203229 5.861053 0.98807 11.825404 1.621333 17.964912 1.621333s12.10386-0.628772 17.964912-1.621333c50.894596-8.591719 89.824561-52.861754 89.824562-106.168141zM125.754386 501.396211c45.033544-7.60814 80.595088-43.169684 88.207719-88.203229 0.98807-5.861053 1.616842-11.834386 1.616842-17.964912s-0.628772-12.10386-1.616842-17.964912C205.370386 326.368561 161.091368 287.438596 107.789474 287.438596 48.34807 287.438596 0 335.791158 0 395.22807c0 53.310877 38.929965 97.576421 89.824561 106.168141 5.861053 0.98807 11.825404 1.621333 17.964913 1.621333s12.10386-0.628772 17.964912-1.621333zM610.807018 810.042386c-45.033544 7.60814-80.595088 43.169684-88.20772 88.203228-0.98807 5.861053-1.616842 11.834386-1.616842 17.964912s0.628772 12.10386 1.616842 17.964913c8.591719 50.894596 52.875228 89.824561 106.172632 89.824561 59.436912 0 107.789474-48.352561 107.789474-107.789474 0-53.310877-38.929965-97.576421-89.824562-106.16814a107.461614 107.461614 0 0 0-17.964912-1.621333c-6.139509 0-12.10386 0.628772-17.964912 1.621333zM213.962105 898.245614c-7.612632-45.033544-43.174175-80.595088-88.207719-88.203228a107.461614 107.461614 0 0 0-17.964912-1.621333c-6.139509 0-12.10386 0.628772-17.964913 1.621333C38.929965 818.634105 0 862.90414 0 916.210526c0 59.436912 48.34807 107.789474 107.789474 107.789474 53.297404 0 97.576421-38.929965 106.172631-89.824561 0.98807-5.861053 1.616842-11.834386 1.616842-17.964913s-0.628772-12.10386-1.616842-17.964912z" fill="#FE8657" p-id="6130"></path></svg>